PathFileType	4	(X/Y/Z)	4_1_3_p0_0-404_filt_butterworth.trc
DataRate	CameraRate	NumFrames	NumMarkers	Units	OrigDataRate	OrigDataStartFrame	OrigNumFrames
60.0	60.0	4	27	m	60.0	0	404
Frame#	Time	RHip			RKnee			RAnkle			RBigToe			RSmallToe			RHeel			LHip			LKnee			LAnkle			LBigToe			LSmallToe			LHeel			Neck			Head			Nose			RShoulder			RElbow			RWrist			RThumb			RIndex			RPinky			LShoulder			LElbow			LWrist			LThumb			LIndex			LPinky			
		X1	Y1	Z1	X2	Y2	Z2	X3	Y3	Z3	X4	Y4	Z4	X5	Y5	Z5	X6	Y6	Z6	X7	Y7	Z7	X8	Y8	Z8	X9	Y9	Z9	X10	Y10	Z10	X11	Y11	Z11	X12	Y12	Z12	X13	Y13	Z13	X14	Y14	Z14	X15	Y15	Z15	X16	Y16	Z16	X17	Y17	Z17	X18	Y18	Z18	X19	Y19	Z19	X20	Y20	Z20	X21	Y21	Z21	X22	Y22	Z22	X23	Y23	Z23	X24	Y24	Z24	X25	Y25	Z25	X26	Y26	Z26	X27	Y27	Z27	
0	0.0	0.36084494768155184	0.4448924701882818	0.7321573216639176	0.3711054870478009	0.44733465535768324	1.1564068950341047	0.36119936069410435	0.5110440632507299	1.5906620952474575	0.349115386508954	0.28318446324795715	1.5963615258990993	0.4147926375478021	0.3347442534638311	1.6165908861781424	0.353638594702708	0.5256273397613535	1.636908289117739	0.14549805915141883	0.43515838954698327	0.7424673481843301	0.18213793919743987	0.44352279689892926	1.154274171122708	0.1985370622758833	0.4546011078112755	1.5485381274196215	0.18162070238355915	0.3014139165778166	1.6256368453826506	0.13581177077178036	0.3189579816288385	1.585193578286499	0.21622820577520527	0.5142147943932307	1.6232221670328264	0.22504496894692083	0.44749161073450205	0.14862643401838344	0.24272337225391924	0.38414669164249754	-0.11602626094752186	0.24852033688627106	0.3512530842888242	0.03500859255747732	0.406906791409395	0.4421621120810916	0.22405533722389356	0.4544181398781144	0.2755342924656137	0.4500125882742612	0.29360623509253003	0.14368292060989793	0.6183319601535615	0.19669878432914684	0.12335722954466014	0.6941520489248265	0.2027232308632761	0.11177793978889926	0.7044087193248827	0.22772735970414243	0.08002990005347276	0.6939460426852507	0.05276538267169477	0.4385563777998199	0.24878559256436322	0.019700330932427623	0.28079422321299435	0.4754683670126139	0.18167202188816703	0.1277274345122699	0.6011041332327138	0.294145402220115	0.1061892429510047	0.6266385665765951	0.2893475186897864	0.06084412599734628	0.6381905465205542	0.25113692561973433	0.05107264423762279	0.6702292996017114
1	0.0166666666666666	0.3605331492136066	0.4457561960491707	0.7263890947111313	0.3702357142675715	0.4471098392797441	1.157606179560929	0.3611479822497974	0.5109027280451214	1.590436356272151	0.3518610043696225	0.27491321205177316	1.587940058743433	0.41457304089765246	0.3343332738592189	1.6163416257005647	0.35406870684655106	0.5252650327157734	1.6340398922710513	0.1495040215667749	0.42804479814024965	0.7367026151746919	0.18229249509621062	0.44306300277794525	1.150676014298724	0.1984754797623387	0.4545349850538574	1.54847682523883	0.18158613042488997	0.30143376775543096	1.6256677674356046	0.13573564989450165	0.31890201667002216	1.5852435811881787	0.21648173018297368	0.5128759357553117	1.6254182098579408	0.225090794391146	0.44756745131890574	0.14856387884812153	0.2418675124849618	0.3870880267203549	-0.1157701777127735	0.24852623681772593	0.35123185402245943	0.034998344341910716	0.40689383600610757	0.4421848799215965	0.2240898786418311	0.4540171120349062	0.27439152544682466	0.4500740464200881	0.2936048040163403	0.1438694682640269	0.6183876010614733	0.19729280194191523	0.12321348729692568	0.6941145268228435	0.20319811271285926	0.11216447412197254	0.7046081029883884	0.229733417642246	0.07263878492165671	0.6885145359826117	0.054224027936144704	0.4457555957565713	0.24568813084935653	0.017242310027309204	0.2798754157895412	0.47532221435392985	0.18171622932088588	0.1278720741578766	0.6010403772490234	0.2886538303098131	0.09692905116332605	0.6234245940402647	0.2861500729609714	0.058298738101001966	0.6375037797602596	0.25092634333859	0.05097887442613049	0.6727767440258549
2	0.0333333333333333	0.36042451529065045	0.4462509010539737	0.7231469235151672	0.3703308754326336	0.44722019703507243	1.1586794428150746	0.361117591361831	0.5108259286322536	1.5903078292237272	0.3535315983090871	0.2699557934483186	1.582896026219356	0.4144378922904429	0.3339960978707496	1.6161243402057814	0.3541418309096735	0.5250730654574168	1.6331988525925878	0.1515147796129723	0.4235808054417459	0.733328691938499	0.182371726287442	0.44295601782794913	1.1499721036864738	0.19844410694871623	0.45450282867668745	1.54845726273865	0.1815654414085659	0.3014327762019483	1.6256942560755134	0.13569183599121998	0.3188351225421616	1.5852589078727468	0.2166337633523795	0.5121282181480729	1.6267596146171595	0.22512787350632632	0.44763176673755833	0.14853419709292423	0.2415254200073871	0.38830683559728085	-0.1156742378517271	0.2485283370370553	0.3511937496653976	0.03499254395209499	0.406907913312321	0.44222783133804205	0.22411491529882355	0.4531590286825797	0.27174112212875456	0.4502749636398203	0.29362603858881187	0.14412791208350714	0.6184411169831571	0.19708717919743474	0.12312974304692781	0.6940854649000384	0.20376179397453797	0.11235140032475327	0.7047124208236836	0.23095851409777218	0.06824442635769236	0.6857054934647698	0.05550021956553518	0.45031986603553603	0.24384846714868008	0.016622812853609358	0.27827192172126447	0.47493232044491057	0.1817485384501998	0.12796851367943196	0.6009706864738913	0.2854029617989117	0.09185558459939999	0.6213857840450829	0.28457543390153667	0.05607530764329693	0.6367904580985355	0.250929500830376	0.051009668263025124	0.6750248902282224
3	0.05	0.3609473597545786	0.44634520187620785	0.7227581686978063	0.37107018590907137	0.44754655390533665	1.1595022693761352	0.3611121936775822	0.5108342857814614	1.5903034811665113	0.3540344882896573	0.2685843671500638	1.5814984135766739	0.4145054769994978	0.33411687726117917	1.616191833624131	0.35389795968018267	0.525084537621973	1.6343176401825188	0.15169208708595516	0.4221273869699551	0.7325499823461546	0.1823319878972908	0.44311191235751357	1.151727894239822	0.19844699464151194	0.4545101879045981	1.548478871889831	0.18156333906610514	0.3014103390895581	1.6257122256128207	0.13568833001300337	0.31876412063896703	1.5852452249465652	0.21668168646814853	0.5119950276075149	1.6271750989168088	0.2251527576142478	0.44766863738559715	0.14853372500673973	0.2418644750819166	0.3872588359716406	-0.11578479929429275	0.24852828825320716	0.3511425027081204	0.034991704522910866	0.4069437830071758	0.4422906241402007	0.22413606698592398	0.45198141363766897	0.2680453081136155	0.45060015960190103	0.29362808729416606	0.1442961847258731	0.6185299543180675	0.19631364592260558	0.12317489634514035	0.6941175331277485	0.20388397819567197	0.11214735958453263	0.7046787199391296	0.23135830512302402	0.06711855198631145	0.6859210345398018	0.05678474852990536	0.45213175886270834	0.24337040941887894	0.018410816344852726	0.2754528794164668	0.47400960682911375	0.18178332869332697	0.12798313338653333	0.600987868510289	0.2850210889695094	0.0917421907891071	0.6209322523414559	0.2848738575639744	0.054241720909769545	0.6362224190765104	0.2511422888818458	0.05109810328792046	0.6767412674763137
